<svg id="Слой_5" data-name="Слой 5" xmlns="http://www.w3.org/2000/svg" viewBox="0 0 256 256"><defs><style>.cls-1{fill:#aaa;}</style></defs><title>eye3</title><path class="cls-1" d="M128,157.5A29.5,29.5,0,1,1,157.5,128v0A29.51,29.51,0,0,1,128,157.5Z"/><path class="cls-1" d="M245.17,110.38c-2.41-2.94-4.78-5.92-7.26-8.79C220.48,81.44,201.08,64.13,178.18,52c-17.82-9.4-36.45-14.69-56.3-13.3C104.14,40,87.71,46.1,72.12,55.26,46.35,70.46,25.06,91.6,6.43,116.33a19.22,19.22,0,0,0,.56,24c7.07,8.72,14.22,17.42,21.89,25.48,17.39,18.27,36.75,33.43,59.28,43.2a98.31,98.31,0,0,0,49.42,8c17.64-1.78,34-8.35,49.34-17.92,21.57-13.37,40-31.08,56.46-51.29,4.07-5,8.53-9.71,10.12-16.55v-6.5C252.14,119,248.67,114.61,245.17,110.38ZM127.88,189.15a61,61,0,1,1,61-61h0A61,61,0,0,1,127.88,189.15Z"/></svg>