<?xml version="1.0" encoding="UTF-8" standalone="no" ?>
<!DOCTYPE svg PUBLIC "-//W3C//DTD SVG 1.1//EN" "http://www.w3.org/Graphics/SVG/1.1/DTD/svg11.dtd">
<svg xmlns="http://www.w3.org/2000/svg" xmlns:xlink="http://www.w3.org/1999/xlink" version="1.1" width="500" height="500" viewBox="0 0 500 500" xml:space="preserve">
<desc>Created with Fabric.js 4.6.0</desc>
<defs>
</defs>
<g transform="matrix(1 0 0 1 256.42 260.91)" id="yAuHZ414OGK-gFakgogWN"  >
<g style="" vector-effect="non-scaling-stroke"   >
		<g transform="matrix(1 0 0 1 0 0)" id="mZvjUES-r28gTbgCxMPty"  >
<path style="stroke: none; stroke-width: 1; stroke-dasharray: none; stroke-linecap: butt; stroke-dashoffset: 0; stroke-linejoin: miter; stroke-miterlimit: 4; fill: rgb(170,170,170); fill-rule: nonzero; opacity: 1;" vector-effect="non-scaling-stroke"  transform=" translate(-28, -28)" d="M 28 56 C 12.53605 56 0 43.46395 0 28 C 0 12.53605 12.53605 0 28 0 C 43.46395 0 56 12.53605 56 28 L 56 28 C 55.99474 43.46182 43.46182 55.99474 28 56 z" stroke-linecap="round" />
</g>
		<g transform="matrix(1 0 0 1 0 0)" id="V6pmCe_NBO_ktZCEGlaqG"  >
<path style="stroke: none; stroke-width: 1; stroke-dasharray: none; stroke-linecap: butt; stroke-dashoffset: 0; stroke-linejoin: miter; stroke-miterlimit: 4; fill: rgb(170,170,170); fill-rule: nonzero; opacity: 1;" vector-effect="non-scaling-stroke"  transform=" translate(-123.66, -90.16)" d="M 239.10798 72.4309 C 242.55656 76.69214 245.97558 81.11456 247.3156 86.90701999999999 L 247.3156 93.45501999999999 C 245.74895999999998 100.34553 241.35448 105.09031999999999 237.34427 110.12723999999999 C 221.12609 130.48648999999997 202.96684 148.32727 181.71373 161.79601 C 166.59909 171.43669 150.47944 178.05519999999999 133.09859 179.84834999999998 C 116.45901 181.50321 99.68376 178.72682999999998 84.40462 171.78927 C 62.20560999999999 161.94711999999998 43.13002999999999 146.67515999999998 25.995509999999996 128.27024 C 18.438189999999995 120.15072 11.393229999999996 111.38647 4.427099999999996 102.60207 C -1.262260000000004 95.66579999999999 -1.4914200000000042 85.62485 3.875329999999996 78.42483 C 22.231629999999996 53.5122 43.20886 32.21608 68.60027 16.90383 C 83.96123 7.67619 100.14985999999999 1.5311399999999988 117.62924 0.22154000000000096 C 137.18761999999998 -1.178719999999999 155.54391999999999 4.150340000000001 173.10213 13.619760000000001 C 195.6657 25.83934 214.7807 43.27717 231.95462999999998 63.57598 C 234.39818999999997 66.46717 236.73337999999998 69.46918 239.10796999999997 72.43089 z M 58.31428 90.15682 C 58.31428 126.22645 87.58818 155.50035 123.65781 155.50035 C 159.72744 155.50035 189.00134 126.22645 189.00134 90.15682 C 189.00134 54.08719 159.72744 24.813289999999995 123.65781 24.813289999999995 C 87.58818 24.813289999999995 58.31428 54.08718999999999 58.31428 90.15682 z" stroke-linecap="round" />
</g>
</g>
</g>
</svg>