<svg id="Share" xmlns="http://www.w3.org/2000/svg" viewBox="0 0 256 256"><defs><style>.cls-1{fill:#fff;}</style></defs><title>Share2</title><path class="cls-1" d="M254.07,124.05,138.37,18.27a6,6,0,0,0-10,4.39V85.3a.85.85,0,0,1-.83.85h-1.69c-5.17,0-10.34,0-15.5,0a107.77,107.77,0,0,0-26.9,3.12C35,101.47.83,145.89.06,197.41c-.1,6.84-.06,24,0,38.43,0,3,4.39,4.27,5.47,1.49,19.15-49,74.66-73.21,123-67.36l.66,63.43a6,6,0,0,0,9.94,4.35c25.83-23.4,95.17-86.27,115-105A5.92,5.92,0,0,0,254.07,124.05Z"/></svg>